<?xml version="1.0" encoding="UTF-8" standalone="no" ?>
<!DOCTYPE svg PUBLIC "-//W3C//DTD SVG 1.1//EN" "http://www.w3.org/Graphics/SVG/1.1/DTD/svg11.dtd">
<svg xmlns="http://www.w3.org/2000/svg" xmlns:xlink="http://www.w3.org/1999/xlink" version="1.1" width="813" height="500" viewBox="0 0 813 500" xml:space="preserve">
<desc>Created with Fabric.js 4.6.0</desc>
<defs>
</defs>
<g transform="matrix(1.57 0 0 1.57 406.29 250.39)" id="axumlEOzXAxFdQQQA9aUe"  >
<path style="stroke: none; stroke-width: 1; stroke-dasharray: none; stroke-linecap: butt; stroke-dashoffset: 0; stroke-linejoin: miter; stroke-miterlimit: 4; fill: rgb(250,250,250); fill-rule: nonzero; opacity: 1;" vector-effect="non-scaling-stroke"  transform=" translate(-256, -154.44)" d="M 120.81043 80.56131 L 217.37833 80.56131 L 217.37833 88.23666 L 129.66249 88.23666 L 129.66249 146.00376 L 212.14756999999997 146.00376 L 212.14756999999997 153.67911 L 129.66249 153.67911 L 129.66249 217.10173 L 218.38423999999998 217.10173 L 218.38423999999998 224.77708 L 120.81042999999998 224.77708 z M 226.0292 80.56131 L 236.28954 80.56131 L 281.75692 143.98393000000002 L 328.23022 80.56131000000002 L 391.44147999999996 1.4210854715202004e-14 L 287.59122999999994 150.64936 L 341.1059399999999 224.77706999999998 L 330.44323999999995 224.77706999999998 L 281.7569199999999 157.3148 L 232.86941999999993 224.77706999999998 L 222.40789999999993 224.77706999999998 L 276.32496999999995 150.64936 z M 344.92842 88.23666 L 344.92842 80.56131 L 454.97558000000004 80.56131 L 454.97558000000004 88.23666 L 404.27743000000004 88.23666 L 404.27743000000004 224.77707 L 395.42537000000004 224.77707 L 395.42537000000004 88.23666 z M 0 80.56131 L 11.06507 80.56131 L 163.64593 308.884 L 100.59155999999999 224.77707 L 9.254429999999985 91.46838 L 8.852059999999986 224.77707 L -1.4210854715202004e-14 224.77707 z M 454.08371 214.78546 C 452.27517 214.78546 450.91877 213.38417 450.91877 211.57328 C 450.91877 209.76238 452.27517 208.36109000000002 454.08371 208.36109000000002 C 455.91378 208.36109000000002 457.24865 209.76238 457.24865 211.57328 C 457.24865 213.38417 455.91378 214.78546 454.08371 214.78546 z M 462.78192 206.33461 L 467.51857 206.33461 C 467.58316 208.90005 469.45629 210.62471 472.21216000000004 210.62471 C 475.29098000000005 210.62471 477.03493000000003 208.7707 477.03493000000003 205.29980999999998 L 477.03493000000003 183.31034999999997 L 481.8577 183.31034999999997 L 481.8577 205.32136999999997 C 481.8577 211.57327999999998 478.24062000000004 215.17350999999996 472.25522 215.17350999999996 C 466.63583 215.17350999999996 462.78192 211.68106999999998 462.78192 206.33460999999997 z M 488.16605 206.05436 L 492.94576 206.05436 C 493.35483 209.00785 496.23988 210.88342 500.39522 210.88342 C 504.27066 210.88342 507.11265 208.8785 507.11265 206.11904 C 507.11265 203.74763000000002 505.30411 202.32478 501.19183999999996 201.35466000000002 L 497.18721999999997 200.38454000000002 C 491.56782999999996 199.06948000000003 489.00572999999997 196.35314000000002 489.00572999999997 191.78278 C 489.00572999999997 186.2423 493.52707999999996 182.55583000000001 500.30909999999994 182.55583000000001 C 506.61744999999996 182.55583000000001 511.22491999999994 186.2423 511.50480999999996 191.48096 L 506.81121999999993 191.48096 C 506.3590899999999 188.61371 503.86157999999995 186.82437000000002 500.24449999999996 186.82437000000002 C 496.43364999999994 186.82437000000002 493.89309 188.65682 493.89309 191.45940000000002 C 493.89309 193.6799 495.52939 194.95184 499.57707 195.90041000000002 L 503.00037 196.74118 C 509.37332 198.2287 512 200.81570000000002 512 205.49385 C 512 211.44394 507.39253 215.17352 500.0292 215.17352 C 493.13953 215.17352 488.51053 211.6164 488.16605 206.05436 z" stroke-linecap="round" />
</g>
</svg>