<?xml version="1.0" encoding="UTF-8" standalone="no" ?>
<!DOCTYPE svg PUBLIC "-//W3C//DTD SVG 1.1//EN" "http://www.w3.org/Graphics/SVG/1.1/DTD/svg11.dtd">
<svg xmlns="http://www.w3.org/2000/svg" xmlns:xlink="http://www.w3.org/1999/xlink" version="1.1" width="500" height="500" viewBox="0 0 500 500" xml:space="preserve">
<desc>Created with Fabric.js 4.6.0</desc>
<defs>
</defs>
<g transform="matrix(1.93 0 0 1.93 250 250)" id="kwKXEgrvvP-kPnDC2ZTO5"  >
<path style="stroke: none; stroke-width: 1; stroke-dasharray: none; stroke-linecap: butt; stroke-dashoffset: 0; stroke-linejoin: miter; stroke-miterlimit: 4; fill: rgb(0,216,255); fill-rule: nonzero; opacity: 1;" vector-effect="non-scaling-stroke"  transform=" translate(-128, -113.88)" d="M 210.48338 73.82364 C 207.82770000000002 72.90955 205.07587 72.04468 202.24247000000003 71.22673999999999 C 202.70817000000002 69.32610999999999 203.13560000000004 67.45008999999999 203.51563000000002 65.60596999999999 C 209.75384000000003 35.32488999999998 205.67508 10.930249999999987 191.74733 2.8984899999999882 C 178.39236 -4.802900000000012 156.55133 3.227039999999988 134.49294 22.423779999999987 C 132.37176 24.269719999999985 130.24466 26.224119999999985 128.11848 28.272389999999987 C 126.70178 26.917199999999987 125.28736 25.607589999999988 123.87658 24.35492999999999 C 100.75875 3.82852999999999 77.58668 -4.8215800000000115 63.6726 3.233419999999988 C 50.33039 10.957129999999989 46.379220000000004 33.89041999999999 51.99452 62.588019999999986 C 52.536770000000004 65.35989999999998 53.17062 68.19055999999999 53.8874 71.06861999999998 C 50.60789 71.99955999999999 47.44185 72.99202999999999 44.41252 74.04782999999998 C 17.30933 83.49719999999998 0 98.30667999999997 0 113.66799999999998 C 0 129.53328999999997 18.58158 145.44642 46.81165 155.09536999999997 C 49.03946 155.85680999999997 51.3511 156.57677999999999 53.73338 157.26028999999997 C 52.9601 160.37301999999997 52.287519999999994 163.42331999999996 51.72293 166.39842999999996 C 46.368739999999995 194.59796999999998 50.550019999999996 216.98945999999995 63.85669 224.66441999999995 C 77.60126 232.59045999999995 100.66852 224.44341999999995 123.13018 204.80922999999996 C 124.90549999999999 203.25719999999995 126.68719999999999 201.61128999999997 128.47208 199.88609999999997 C 130.78555 202.11389999999997 133.09537 204.22231999999997 135.3929 206.19994999999997 C 157.14963 224.92233999999996 178.63797 232.48246999999998 191.93233 224.78608999999997 C 205.66323 216.83726999999996 210.12568000000002 192.78346999999997 204.3322 163.51809999999998 C 203.88974 161.28300999999996 203.37483 158.99960999999996 202.79657 156.67565999999997 C 204.4165 156.19673999999998 206.00681 155.70233999999996 207.55748 155.18832999999995 C 236.90533 145.46464999999995 256 129.74516999999994 256 113.66799999999995 C 256 98.25108999999995 238.13247 83.34180999999995 210.48338 73.82363999999995 L 210.48338 73.82363999999995 z M 204.11803 144.80757 C 202.7182 145.27099 201.2819 145.71892 199.81827 146.15318 C 196.57841000000002 135.89634999999998 192.20574000000002 124.98973 186.85473000000002 113.72130999999999 C 191.96104000000003 102.72128 196.16466000000003 91.95409999999998 199.31384000000003 81.76379999999999 C 201.93261000000004 82.52158999999999 204.47437000000002 83.32085 206.92364000000003 84.16430999999999 C 230.61335000000003 92.31954999999999 245.06376000000003 104.37720999999999 245.06376000000003 113.66799999999998 C 245.06376000000003 123.56437999999997 229.45775000000003 136.41126999999997 204.11803000000003 144.80756999999997 L 204.11803000000003 144.80756999999997 z M 193.60375 165.64201 C 196.16557 178.58277 196.53148 190.28271999999998 194.83454 199.42906 C 193.30984 207.64764 190.24359 213.12715 186.45237 215.32169 C 178.38461 219.99146 161.13179 213.92139 142.52515 197.90983 C 140.39212 196.07437 138.24361 194.1145 136.08826 192.04026 C 143.30161999999999 184.15113 150.51088 174.97973 157.54698 164.79398999999998 C 169.9227 163.69580999999997 181.61489999999998 161.90044999999998 192.21803999999997 159.44935999999998 C 192.74024999999997 161.55595999999997 193.20412999999996 163.62198999999998 193.60374999999996 165.64200999999997 L 193.60374999999996 165.64200999999997 z M 87.27618999999999 214.51469 C 79.39388999999998 217.29841 73.11603999999998 217.37816 69.32115999999999 215.19 C 61.24611999999999 210.53253 57.889149999999994 192.55426 62.468239999999994 168.43804 C 62.992729999999995 165.67618 63.617 162.83914 64.33652 159.93922 C 74.82346 162.25815 86.42999999999999 163.92684 98.83533 164.93252 C 105.91883 174.89953 113.33633 184.06091 120.81125 192.08264000000003 C 119.1781 193.65928000000002 117.55134 195.16028000000003 115.93368 196.57470000000004 C 106.0013 205.25671000000003 96.04795999999999 211.41654000000003 87.27619 214.51469000000003 L 87.27619 214.51469000000003 z M 50.34860999999999 144.74696 C 37.86580999999999 140.48046 27.557039999999986 134.93533 20.490859999999987 128.8844 C 14.141469999999988 123.44682 10.935779999999987 118.04842 10.935779999999987 113.668 C 10.935779999999987 104.34622 24.833459999999988 92.45625000000001 48.01235999999999 84.37483 C 50.82479999999999 83.39421 53.76891999999999 82.4701 56.824229999999986 81.60204 C 60.027639999999984 92.02245 64.22988999999998 102.91722 69.30110999999998 113.93411 C 64.16426999999997 125.11459 59.90232999999998 136.18297 56.66747999999998 146.72551 C 54.48934999999998 146.09941 52.37910999999998 145.44050000000001 50.34860999999998 144.74696 L 50.34860999999998 144.74696 z M 62.72706999999998 60.487809999999996 C 57.916029999999985 35.900409999999994 61.11123999999998 17.352549999999994 69.15164999999999 12.698269999999994 C 77.71609 7.7400599999999935 96.65446999999999 14.809419999999994 116.61491999999998 32.53295999999999 C 117.89081999999999 33.66576999999999 119.17171999999998 34.85143999999999 120.45627999999998 36.07812999999999 C 113.01826999999997 44.06476999999999 105.66865999999997 53.15733999999999 98.64804999999998 63.06556999999999 C 86.60815999999998 64.18151999999999 75.08318999999999 65.97414999999998 64.48688999999999 68.37465999999999 C 63.820689999999985 65.69481999999999 63.230589999999985 63.06191999999999 62.72706999999999 60.48780999999999 L 62.72706999999999 60.48780999999999 z M 173.15389999999996 87.75504 C 170.62079999999997 83.37962999999999 168.02024999999998 79.10766 165.36911999999995 74.95235 C 173.53712999999996 75.98491 181.36290999999994 77.35558999999999 188.71206999999995 79.03293 C 186.50567999999996 86.10412 183.75566999999995 93.49746999999999 180.51854999999995 101.07674 C 178.19641999999996 96.66807 175.74031999999994 92.22295 173.15389999999994 87.75504000000001 L 173.15389999999994 87.75504000000001 z M 128.12211999999997 43.89388999999999 C 133.16645999999997 49.358819999999994 138.21808999999996 55.46032999999999 143.18678999999997 62.08039999999999 C 138.17980999999997 61.84389999999999 133.11086999999998 61.72086999999999 127.99999999999997 61.72086999999999 C 122.93742999999998 61.72086999999999 117.90584999999997 61.84116999999999 112.92986999999997 62.07355999999999 C 117.90357999999996 55.51500999999999 122.99894999999997 49.421699999999994 128.12211999999997 43.89388999999999 L 128.12211999999997 43.89388999999999 z M 82.80189999999996 87.83068 C 80.27152999999996 92.21839 77.86099999999996 96.63936 75.57531999999996 101.06854 C 72.39059999999996 93.5157 69.66610999999996 86.08863 67.44058999999996 78.91719 C 74.74462999999996 77.28268 82.53349999999996 75.94618 90.64955999999995 74.93321 C 87.96106999999995 79.1268 85.33910999999995 83.43021 82.80189999999995 87.82977 L 82.80189999999995 87.83068 L 82.80189999999995 87.83068 z M 90.88331999999996 153.18290000000002 C 82.49795999999995 152.24740000000003 74.59196999999995 150.9797 67.28975999999996 149.39030000000002 C 69.55081999999996 142.09082000000004 72.33545999999996 134.50517000000002 75.58762999999996 126.78966000000003 C 77.87921999999996 131.21564000000004 80.29931999999997 135.63844000000003 82.84518999999996 140.03572000000003 L 82.84563999999996 140.03572000000003 C 85.43889999999996 144.51548000000003 88.12556999999995 148.90364000000002 90.88331999999996 153.18290000000002 L 90.88331999999996 153.18290000000002 z M 128.42468999999994 184.21311000000003 C 123.24136999999995 178.62059000000002 118.07125999999994 172.43432 113.02190999999993 165.78008000000003 C 117.92361999999993 165.97237000000004 122.92102999999993 166.07080000000002 127.99999999999993 166.07080000000002 C 133.21794999999992 166.07080000000002 138.37620999999993 165.95324000000002 143.45335999999992 165.72722000000002 C 138.46825999999993 172.50131000000002 133.43484999999993 178.69714000000002 128.4246899999999 184.21311000000003 L 128.4246899999999 184.21311000000003 z M 180.62289999999996 126.39641000000003 C 184.04456999999996 134.19531000000003 186.92899999999995 141.74132000000003 189.21922999999995 148.91640000000004 C 181.79671999999997 150.60969000000003 173.78273999999996 151.97353000000004 165.33904999999996 152.98696000000004 C 167.99655999999996 148.77560000000003 170.61987999999997 144.43026000000003 173.19764999999995 139.96053000000003 C 175.80547999999996 135.43840000000003 178.28162999999995 130.90943000000004 180.62289999999996 126.39641000000003 L 180.62289999999996 126.39641000000003 z M 163.72458999999995 134.49697000000003 C 159.72283999999996 141.43556000000004 155.61444999999995 148.05927000000003 151.44364999999996 154.31161000000003 C 143.84705999999997 154.85478000000003 135.99894999999995 155.13456000000002 127.99999999999996 155.13456000000002 C 120.03340999999996 155.13456000000002 112.28416999999996 154.88713 104.82200999999995 154.40275000000003 C 100.48305999999995 148.06839000000002 96.28536999999994 141.42508000000004 92.30912999999995 134.55666000000002 L 92.31004999999995 134.55666000000002 C 88.34428999999994 127.70694000000002 84.69431999999995 120.79933000000003 81.38701999999995 113.93047000000001 C 84.69340999999994 107.04565000000001 88.33380999999994 100.13030000000002 92.27677999999995 93.29287000000002 L 92.27586999999994 93.29424000000002 C 96.22931999999994 86.43859000000002 100.39009999999993 79.82763000000001 104.68894999999995 73.53292000000002 C 112.30239999999995 72.95740000000002 120.10949999999995 72.65711000000002 127.99953999999995 72.65711000000002 L 127.99999999999996 72.65711000000002 C 135.92557999999997 72.65711000000002 143.74270999999996 72.95967000000002 151.35387999999995 73.54021000000002 C 155.58710999999994 79.78890000000001 159.71964999999994 86.37844000000001 163.68858999999995 93.23500000000001 C 167.70263999999995 100.16858000000002 171.38997999999995 107.03790000000001 174.72461999999996 113.77508000000002 C 171.39999999999995 120.62800000000001 167.72086999999996 127.56659000000002 163.72458999999995 134.49697 L 163.72458999999995 134.49697 z M 186.28467999999995 12.372920000000036 C 194.85731999999996 17.316550000000035 198.19104999999996 37.254230000000035 192.80494999999996 63.39867000000004 C 192.46136999999996 65.06690000000003 192.07449999999997 66.76612000000004 191.65436999999997 68.48812000000004 C 181.03345999999996 66.03749000000003 169.50028999999998 64.21387000000004 157.42531999999997 63.081060000000036 C 150.39102999999997 53.06392000000004 143.10157999999996 43.95723000000004 135.78477999999996 36.073110000000035 C 137.75192999999996 34.180690000000034 139.71635999999995 32.376210000000036 141.67256999999995 30.673350000000035 C 160.57221999999996 14.225700000000035 178.23651999999996 7.731850000000033 186.28467999999995 12.372920000000036 L 186.28467999999995 12.372920000000036 z M 127.99999999999994 90.80807000000003 C 140.62497999999994 90.80807000000003 150.85992999999993 101.04256000000002 150.85992999999993 113.66800000000003 C 150.85992999999993 126.29297000000004 140.62497999999994 136.52792000000002 127.99999999999994 136.52792000000002 C 115.37502999999994 136.52792000000002 105.14006999999995 126.29297000000003 105.14006999999995 113.66800000000002 C 105.14006999999995 101.04256000000002 115.37502999999995 90.80807000000001 127.99999999999994 90.80807000000001 L 127.99999999999994 90.80807000000001 z" stroke-linecap="round" />
</g>
<g transform="matrix(1.93 0 0 1.93 250 250)" id="kwKXEgrvvP-kPnDC2ZTO5"  >
<path style="stroke: none; stroke-width: 1; stroke-dasharray: none; stroke-linecap: butt; stroke-dashoffset: 0; stroke-linejoin: miter; stroke-miterlimit: 4; fill: rgb(0,216,255); fill-rule: nonzero; opacity: 1;" vector-effect="non-scaling-stroke"  transform=" translate(-128, -113.88)" d="M 210.48338 73.82364 C 207.82770000000002 72.90955 205.07587 72.04468 202.24247000000003 71.22673999999999 C 202.70817000000002 69.32610999999999 203.13560000000004 67.45008999999999 203.51563000000002 65.60596999999999 C 209.75384000000003 35.32488999999998 205.67508 10.930249999999987 191.74733 2.8984899999999882 C 178.39236 -4.802900000000012 156.55133 3.227039999999988 134.49294 22.423779999999987 C 132.37176 24.269719999999985 130.24466 26.224119999999985 128.11848 28.272389999999987 C 126.70178 26.917199999999987 125.28736 25.607589999999988 123.87658 24.35492999999999 C 100.75875 3.82852999999999 77.58668 -4.8215800000000115 63.6726 3.233419999999988 C 50.33039 10.957129999999989 46.379220000000004 33.89041999999999 51.99452 62.588019999999986 C 52.536770000000004 65.35989999999998 53.17062 68.19055999999999 53.8874 71.06861999999998 C 50.60789 71.99955999999999 47.44185 72.99202999999999 44.41252 74.04782999999998 C 17.30933 83.49719999999998 0 98.30667999999997 0 113.66799999999998 C 0 129.53328999999997 18.58158 145.44642 46.81165 155.09536999999997 C 49.03946 155.85680999999997 51.3511 156.57677999999999 53.73338 157.26028999999997 C 52.9601 160.37301999999997 52.287519999999994 163.42331999999996 51.72293 166.39842999999996 C 46.368739999999995 194.59796999999998 50.550019999999996 216.98945999999995 63.85669 224.66441999999995 C 77.60126 232.59045999999995 100.66852 224.44341999999995 123.13018 204.80922999999996 C 124.90549999999999 203.25719999999995 126.68719999999999 201.61128999999997 128.47208 199.88609999999997 C 130.78555 202.11389999999997 133.09537 204.22231999999997 135.3929 206.19994999999997 C 157.14963 224.92233999999996 178.63797 232.48246999999998 191.93233 224.78608999999997 C 205.66323 216.83726999999996 210.12568000000002 192.78346999999997 204.3322 163.51809999999998 C 203.88974 161.28300999999996 203.37483 158.99960999999996 202.79657 156.67565999999997 C 204.4165 156.19673999999998 206.00681 155.70233999999996 207.55748 155.18832999999995 C 236.90533 145.46464999999995 256 129.74516999999994 256 113.66799999999995 C 256 98.25108999999995 238.13247 83.34180999999995 210.48338 73.82363999999995 L 210.48338 73.82363999999995 z M 204.11803 144.80757 C 202.7182 145.27099 201.2819 145.71892 199.81827 146.15318 C 196.57841000000002 135.89634999999998 192.20574000000002 124.98973 186.85473000000002 113.72130999999999 C 191.96104000000003 102.72128 196.16466000000003 91.95409999999998 199.31384000000003 81.76379999999999 C 201.93261000000004 82.52158999999999 204.47437000000002 83.32085 206.92364000000003 84.16430999999999 C 230.61335000000003 92.31954999999999 245.06376000000003 104.37720999999999 245.06376000000003 113.66799999999998 C 245.06376000000003 123.56437999999997 229.45775000000003 136.41126999999997 204.11803000000003 144.80756999999997 L 204.11803000000003 144.80756999999997 z M 193.60375 165.64201 C 196.16557 178.58277 196.53148 190.28271999999998 194.83454 199.42906 C 193.30984 207.64764 190.24359 213.12715 186.45237 215.32169 C 178.38461 219.99146 161.13179 213.92139 142.52515 197.90983 C 140.39212 196.07437 138.24361 194.1145 136.08826 192.04026 C 143.30161999999999 184.15113 150.51088 174.97973 157.54698 164.79398999999998 C 169.9227 163.69580999999997 181.61489999999998 161.90044999999998 192.21803999999997 159.44935999999998 C 192.74024999999997 161.55595999999997 193.20412999999996 163.62198999999998 193.60374999999996 165.64200999999997 L 193.60374999999996 165.64200999999997 z M 87.27618999999999 214.51469 C 79.39388999999998 217.29841 73.11603999999998 217.37816 69.32115999999999 215.19 C 61.24611999999999 210.53253 57.889149999999994 192.55426 62.468239999999994 168.43804 C 62.992729999999995 165.67618 63.617 162.83914 64.33652 159.93922 C 74.82346 162.25815 86.42999999999999 163.92684 98.83533 164.93252 C 105.91883 174.89953 113.33633 184.06091 120.81125 192.08264000000003 C 119.1781 193.65928000000002 117.55134 195.16028000000003 115.93368 196.57470000000004 C 106.0013 205.25671000000003 96.04795999999999 211.41654000000003 87.27619 214.51469000000003 L 87.27619 214.51469000000003 z M 50.34860999999999 144.74696 C 37.86580999999999 140.48046 27.557039999999986 134.93533 20.490859999999987 128.8844 C 14.141469999999988 123.44682 10.935779999999987 118.04842 10.935779999999987 113.668 C 10.935779999999987 104.34622 24.833459999999988 92.45625000000001 48.01235999999999 84.37483 C 50.82479999999999 83.39421 53.76891999999999 82.4701 56.824229999999986 81.60204 C 60.027639999999984 92.02245 64.22988999999998 102.91722 69.30110999999998 113.93411 C 64.16426999999997 125.11459 59.90232999999998 136.18297 56.66747999999998 146.72551 C 54.48934999999998 146.09941 52.37910999999998 145.44050000000001 50.34860999999998 144.74696 L 50.34860999999998 144.74696 z M 62.72706999999998 60.487809999999996 C 57.916029999999985 35.900409999999994 61.11123999999998 17.352549999999994 69.15164999999999 12.698269999999994 C 77.71609 7.7400599999999935 96.65446999999999 14.809419999999994 116.61491999999998 32.53295999999999 C 117.89081999999999 33.66576999999999 119.17171999999998 34.85143999999999 120.45627999999998 36.07812999999999 C 113.01826999999997 44.06476999999999 105.66865999999997 53.15733999999999 98.64804999999998 63.06556999999999 C 86.60815999999998 64.18151999999999 75.08318999999999 65.97414999999998 64.48688999999999 68.37465999999999 C 63.820689999999985 65.69481999999999 63.230589999999985 63.06191999999999 62.72706999999999 60.48780999999999 L 62.72706999999999 60.48780999999999 z M 173.15389999999996 87.75504 C 170.62079999999997 83.37962999999999 168.02024999999998 79.10766 165.36911999999995 74.95235 C 173.53712999999996 75.98491 181.36290999999994 77.35558999999999 188.71206999999995 79.03293 C 186.50567999999996 86.10412 183.75566999999995 93.49746999999999 180.51854999999995 101.07674 C 178.19641999999996 96.66807 175.74031999999994 92.22295 173.15389999999994 87.75504000000001 L 173.15389999999994 87.75504000000001 z M 128.12211999999997 43.89388999999999 C 133.16645999999997 49.358819999999994 138.21808999999996 55.46032999999999 143.18678999999997 62.08039999999999 C 138.17980999999997 61.84389999999999 133.11086999999998 61.72086999999999 127.99999999999997 61.72086999999999 C 122.93742999999998 61.72086999999999 117.90584999999997 61.84116999999999 112.92986999999997 62.07355999999999 C 117.90357999999996 55.51500999999999 122.99894999999997 49.421699999999994 128.12211999999997 43.89388999999999 L 128.12211999999997 43.89388999999999 z M 82.80189999999996 87.83068 C 80.27152999999996 92.21839 77.86099999999996 96.63936 75.57531999999996 101.06854 C 72.39059999999996 93.5157 69.66610999999996 86.08863 67.44058999999996 78.91719 C 74.74462999999996 77.28268 82.53349999999996 75.94618 90.64955999999995 74.93321 C 87.96106999999995 79.1268 85.33910999999995 83.43021 82.80189999999995 87.82977 L 82.80189999999995 87.83068 L 82.80189999999995 87.83068 z M 90.88331999999996 153.18290000000002 C 82.49795999999995 152.24740000000003 74.59196999999995 150.9797 67.28975999999996 149.39030000000002 C 69.55081999999996 142.09082000000004 72.33545999999996 134.50517000000002 75.58762999999996 126.78966000000003 C 77.87921999999996 131.21564000000004 80.29931999999997 135.63844000000003 82.84518999999996 140.03572000000003 L 82.84563999999996 140.03572000000003 C 85.43889999999996 144.51548000000003 88.12556999999995 148.90364000000002 90.88331999999996 153.18290000000002 L 90.88331999999996 153.18290000000002 z M 128.42468999999994 184.21311000000003 C 123.24136999999995 178.62059000000002 118.07125999999994 172.43432 113.02190999999993 165.78008000000003 C 117.92361999999993 165.97237000000004 122.92102999999993 166.07080000000002 127.99999999999993 166.07080000000002 C 133.21794999999992 166.07080000000002 138.37620999999993 165.95324000000002 143.45335999999992 165.72722000000002 C 138.46825999999993 172.50131000000002 133.43484999999993 178.69714000000002 128.4246899999999 184.21311000000003 L 128.4246899999999 184.21311000000003 z M 180.62289999999996 126.39641000000003 C 184.04456999999996 134.19531000000003 186.92899999999995 141.74132000000003 189.21922999999995 148.91640000000004 C 181.79671999999997 150.60969000000003 173.78273999999996 151.97353000000004 165.33904999999996 152.98696000000004 C 167.99655999999996 148.77560000000003 170.61987999999997 144.43026000000003 173.19764999999995 139.96053000000003 C 175.80547999999996 135.43840000000003 178.28162999999995 130.90943000000004 180.62289999999996 126.39641000000003 L 180.62289999999996 126.39641000000003 z M 163.72458999999995 134.49697000000003 C 159.72283999999996 141.43556000000004 155.61444999999995 148.05927000000003 151.44364999999996 154.31161000000003 C 143.84705999999997 154.85478000000003 135.99894999999995 155.13456000000002 127.99999999999996 155.13456000000002 C 120.03340999999996 155.13456000000002 112.28416999999996 154.88713 104.82200999999995 154.40275000000003 C 100.48305999999995 148.06839000000002 96.28536999999994 141.42508000000004 92.30912999999995 134.55666000000002 L 92.31004999999995 134.55666000000002 C 88.34428999999994 127.70694000000002 84.69431999999995 120.79933000000003 81.38701999999995 113.93047000000001 C 84.69340999999994 107.04565000000001 88.33380999999994 100.13030000000002 92.27677999999995 93.29287000000002 L 92.27586999999994 93.29424000000002 C 96.22931999999994 86.43859000000002 100.39009999999993 79.82763000000001 104.68894999999995 73.53292000000002 C 112.30239999999995 72.95740000000002 120.10949999999995 72.65711000000002 127.99953999999995 72.65711000000002 L 127.99999999999996 72.65711000000002 C 135.92557999999997 72.65711000000002 143.74270999999996 72.95967000000002 151.35387999999995 73.54021000000002 C 155.58710999999994 79.78890000000001 159.71964999999994 86.37844000000001 163.68858999999995 93.23500000000001 C 167.70263999999995 100.16858000000002 171.38997999999995 107.03790000000001 174.72461999999996 113.77508000000002 C 171.39999999999995 120.62800000000001 167.72086999999996 127.56659000000002 163.72458999999995 134.49697 L 163.72458999999995 134.49697 z M 186.28467999999995 12.372920000000036 C 194.85731999999996 17.316550000000035 198.19104999999996 37.254230000000035 192.80494999999996 63.39867000000004 C 192.46136999999996 65.06690000000003 192.07449999999997 66.76612000000004 191.65436999999997 68.48812000000004 C 181.03345999999996 66.03749000000003 169.50028999999998 64.21387000000004 157.42531999999997 63.081060000000036 C 150.39102999999997 53.06392000000004 143.10157999999996 43.95723000000004 135.78477999999996 36.073110000000035 C 137.75192999999996 34.180690000000034 139.71635999999995 32.376210000000036 141.67256999999995 30.673350000000035 C 160.57221999999996 14.225700000000035 178.23651999999996 7.731850000000033 186.28467999999995 12.372920000000036 L 186.28467999999995 12.372920000000036 z M 127.99999999999994 90.80807000000003 C 140.62497999999994 90.80807000000003 150.85992999999993 101.04256000000002 150.85992999999993 113.66800000000003 C 150.85992999999993 126.29297000000004 140.62497999999994 136.52792000000002 127.99999999999994 136.52792000000002 C 115.37502999999994 136.52792000000002 105.14006999999995 126.29297000000003 105.14006999999995 113.66800000000002 C 105.14006999999995 101.04256000000002 115.37502999999995 90.80807000000001 127.99999999999994 90.80807000000001 L 127.99999999999994 90.80807000000001 z" stroke-linecap="round" />
</g>
</svg>