<?xml version="1.0" encoding="UTF-8" standalone="no" ?>
<!DOCTYPE svg PUBLIC "-//W3C//DTD SVG 1.1//EN" "http://www.w3.org/Graphics/SVG/1.1/DTD/svg11.dtd">
<svg xmlns="http://www.w3.org/2000/svg" xmlns:xlink="http://www.w3.org/1999/xlink" version="1.1" width="500" height="500" viewBox="0 0 500 500" xml:space="preserve">
<desc>Created with Fabric.js 4.6.0</desc>
<defs>
</defs>
<g transform="matrix(12.35 0 0 12.35 250 250)" id="2xQiS5mnPOboZHIF-AQTF"  >
<path style="stroke: none; stroke-width: 1; stroke-dasharray: none; stroke-linecap: butt; stroke-dashoffset: 0; stroke-linejoin: miter; stroke-miterlimit: 4; fill: rgb(240,98,146); fill-rule: evenodd; opacity: 1;" vector-effect="non-scaling-stroke"  transform=" translate(-24.04, -23.99)" d="M 24.042 4.032 C 35.065 4.032 44 12.967 44 23.99 C 44 35.012 35.065 43.94799999999999 24.042 43.94799999999999 C 13.020000000000001 43.94799999999999 4.084000000000003 35.01299999999999 4.084000000000003 23.989999999999995 C 4.085 12.967 13.02 4.032 24.042 4.032 L 24.042 4.032 z" stroke-linecap="round" />
</g>
<g transform="matrix(12.35 0 0 12.35 249.93 249.75)" id="ZlY52H2fak6Qe_Oy4yzQ0"  >
<path style="stroke: none; stroke-width: 1; stroke-dasharray: none; stroke-linecap: butt; stroke-dashoffset: 0; stroke-linejoin: miter; stroke-miterlimit: 4; fill: rgb(255,255,255); fill-rule: nonzero; opacity: 1;" vector-effect="non-scaling-stroke"  transform=" translate(-24.04, -23.97)" d="M 36.561 12.574 C 35.657 9.029 29.78 7.864 24.218 9.84 C 20.908 11.016 17.323999999999998 12.862 14.747 15.272 C 11.683 18.138 11.195 20.632 11.396 21.674 C 12.106000000000002 25.351 17.145 27.755 19.216 29.539 L 19.216 29.55 C 18.605 29.851 14.135000000000002 32.113 13.089000000000002 34.426 C 11.985000000000003 36.866 13.265000000000002 38.617000000000004 14.112000000000002 38.853 C 16.737000000000002 39.583 19.43 38.27 20.878 36.111000000000004 C 22.275 34.027 22.159 31.337000000000003 21.552 29.998000000000005 C 22.389 29.777000000000005 23.366 29.678000000000004 24.605999999999998 29.823000000000004 C 28.107 30.232000000000003 28.793999999999997 32.418000000000006 28.662 33.333000000000006 C 28.531 34.248000000000005 27.796 34.751000000000005 27.551 34.903000000000006 C 27.305 35.05500000000001 27.230999999999998 35.108000000000004 27.250999999999998 35.220000000000006 C 27.281 35.38400000000001 27.394 35.37800000000001 27.604 35.343 C 27.892 35.294000000000004 29.442 34.599000000000004 29.509 32.910000000000004 C 29.593 30.766000000000005 27.539 28.368000000000002 23.901 28.430000000000003 C 22.403 28.456000000000003 21.461 28.598000000000003 20.78 28.852000000000004 C 20.73 28.795000000000005 20.678 28.738000000000003 20.626 28.681000000000004 C 18.377000000000002 26.281000000000006 14.219000000000001 24.584000000000003 14.395000000000001 21.358000000000004 C 14.459000000000001 20.185000000000002 14.867 17.097000000000005 22.384 13.351000000000004 C 28.542 10.282000000000004 33.472 11.127000000000004 34.324 12.998000000000005 C 35.541 15.672000000000004 31.689 20.641000000000005 25.293999999999997 21.358000000000004 C 22.856999999999996 21.631000000000004 21.573999999999998 20.687000000000005 21.254999999999995 20.335000000000004 C 20.918999999999997 19.965000000000003 20.868999999999996 19.948000000000004 20.743999999999996 20.018000000000004 C 20.539999999999996 20.131000000000004 20.668999999999997 20.458000000000006 20.743999999999996 20.653000000000006 C 20.934999999999995 21.150000000000006 21.718999999999998 22.031000000000006 23.053999999999995 22.470000000000006 C 24.228999999999996 22.856000000000005 27.089999999999996 23.067000000000007 30.549999999999997 21.729000000000006 C 34.424 20.229 37.45 16.059 36.561 12.574 z M 20.076 30.638 C 20.366 31.712000000000003 20.334 32.714 20.035 33.621 C 20.002 33.722 19.965 33.821000000000005 19.925 33.92 C 19.885 34.018 19.842000000000002 34.116 19.796 34.212 C 19.564999999999998 34.692 19.253999999999998 35.141000000000005 18.874 35.556000000000004 C 17.714 36.821000000000005 16.093999999999998 37.29900000000001 15.399999999999999 36.89600000000001 C 14.649999999999999 36.461000000000006 15.025999999999998 34.67800000000001 16.369999999999997 33.25600000000001 C 17.816 31.727000000000007 19.897 30.744000000000007 19.897 30.744000000000007 L 19.894 30.738000000000007 C 19.954 30.705 20.015 30.672 20.076 30.638 z" stroke-linecap="round" />
</g>
</svg>