<?xml version="1.0" encoding="UTF-8" standalone="no" ?>
<!DOCTYPE svg PUBLIC "-//W3C//DTD SVG 1.1//EN" "http://www.w3.org/Graphics/SVG/1.1/DTD/svg11.dtd">
<svg xmlns="http://www.w3.org/2000/svg" xmlns:xlink="http://www.w3.org/1999/xlink" version="1.1" width="500" height="500" viewBox="0 0 500 500" xml:space="preserve">
<desc>Created with Fabric.js 4.6.0</desc>
<defs>
</defs>
<g transform="matrix(1.92 0 0 1.92 250 250)" id="Z1YRO5p1aI_p4G7vY4ZBl"  >
<path style="stroke: none; stroke-width: 1; stroke-dasharray: none; stroke-linecap: butt; stroke-dashoffset: 0; stroke-linejoin: miter; stroke-miterlimit: 4; fill: rgb(0,122,204); fill-rule: nonzero; opacity: 1;" vector-effect="non-scaling-stroke"  transform=" translate(-128, -128)" d="M 0 128 L 0 0 L 128 0 L 256 0 L 256 128 L 256 256 L 128 256 L 0 256 z" stroke-linecap="round" />
</g>
<g transform="matrix(-1.92 0 0 -1.92 199.33 342.5)" id="xUNqm4pOj9jwznIFBG3mO"  >
<path style="stroke: none; stroke-width: 1; stroke-dasharray: none; stroke-linecap: butt; stroke-dashoffset: 0; stroke-linejoin: miter; stroke-miterlimit: 4; fill: rgb(255,255,255); fill-rule: nonzero; opacity: 1;" vector-effect="non-scaling-stroke"  transform=" translate(-101.63, -176.14)" d="M 146.658132 223.436863 L 146.739401 212.953054 L 130.079084 212.953054 L 113.418767 212.953054 L 113.418767 165.613371 L 113.418767 118.273689 L 101.63464 118.273689 L 89.8505126 118.273689 L 89.8505126 165.613371 L 89.8505126 212.953054 L 73.1901951 212.953054 L 56.5298776 212.953054 L 56.5298776 223.233689 C 56.5298776 228.922577 56.6517824 233.676863 56.8143221 233.798768 C 56.9362269 233.961308 77.2130522 234.042577 101.797179 234.001943 L 146.536227 233.880038 L 146.658132 223.436863 Z" stroke-linecap="round" />
</g>
<g transform="matrix(1.92 0 0 -1.92 377.94 342.6)" id="vLWCzSSw_cDAG3-YpUpCu"  >
<path style="stroke: none; stroke-width: 1; stroke-dasharray: none; stroke-linecap: butt; stroke-dashoffset: 0; stroke-linejoin: miter; stroke-miterlimit: 4; fill: rgb(255,255,255); fill-rule: nonzero; opacity: 1;" vector-effect="non-scaling-stroke"  transform=" translate(-194.58, -176.19)" d="M 206.566631 234.272145 C 213.068219 232.646748 218.025679 229.761668 222.57679 225.048018 C 224.933616 222.528653 228.428219 217.936907 228.712663 216.839764 C 228.793933 216.514684 217.659965 209.037859 210.914568 204.852462 C 210.670758 204.689922 209.69552 205.74643 208.598377 207.371827 C 205.306949 212.166748 201.852981 214.239129 196.570441 214.604843 C 188.809171 215.133097 183.811076 211.069605 183.851711 204.283573 C 183.851711 202.292462 184.136155 201.114049 184.948854 199.488653 C 186.65552 195.953414 189.825044 193.840399 199.7806 189.533097 C 218.106949 181.649922 225.949489 176.448653 230.825679 169.053097 C 236.270758 160.804208 237.489806 147.638494 233.792028 137.845478 C 229.728536 127.199129 219.651076 119.966113 205.469489 117.568653 C 201.080917 116.796589 190.678377 116.918494 185.964727 117.771827 C 175.684092 119.600399 165.931711 124.679764 159.917743 131.343891 C 157.560917 133.944526 152.969171 140.730557 153.253616 141.218176 C 153.37552 141.380716 154.432028 142.030875 155.610441 142.721668 C 156.748219 143.371827 161.05552 145.850557 165.119012 148.207383 L 172.473933 152.474049 L 174.01806 150.198494 C 176.171711 146.907065 180.885362 142.396589 183.729806 140.893097 C 191.897425 136.585795 203.112663 137.195319 208.639012 142.15278 C 210.995838 144.30643 211.971076 146.541351 211.971076 149.83278 C 211.971076 152.799129 211.605362 154.099446 210.061235 156.334367 C 208.070123 159.178811 204.006631 161.576272 192.466314 166.574367 C 179.259965 172.263256 173.571076 175.798494 168.369806 181.406113 C 165.362822 184.656907 162.518377 189.858176 161.339965 194.206113 C 160.364727 197.822621 160.120917 206.884208 160.892981 210.541351 C 163.61552 223.300716 173.245996 232.199764 187.143139 234.841034 C 191.653616 235.694367 202.137425 235.369287 206.566631 234.272145 Z" stroke-linecap="round" />
</g>
</svg>